<svg xmlns="http://www.w3.org/2000/svg" version="1.1" xmlns:xlink="http://www.w3.org/1999/xlink" xmlns:svgjs="http://svgjs.com/svgjs" width="1440" height="560" preserveAspectRatio="none" viewBox="0 0 1440 560"><g mask="url(&quot;#SvgjsMask1009&quot;)" fill="none"><rect width="1440" height="560" x="0" y="0" fill="rgba(255, 255, 255, 1)"></rect><path d="M 0,245 C 57.6,204.2 172.8,56.4 288,41 C 403.2,25.6 460.8,173.4 576,168 C 691.2,162.6 748.8,10.6 864,14 C 979.2,17.4 1036.8,165.6 1152,185 C 1267.2,204.4 1382.4,125.8 1440,111L1440 560L0 560z" fill="rgba(158, 204, 255, 1)"></path><path d="M 0,287 C 96,341.4 288,543.4 480,559 C 672,574.6 768,392.6 960,365 C 1152,337.4 1344,409.8 1440,421L1440 560L0 560z" fill="rgba(108, 178, 255, 1)"></path></g><defs><mask id="SvgjsMask1009"><rect width="1440" height="560" fill="#ffffff"></rect></mask></defs></svg>